<svg width="70" height="21" viewBox="0 0 70 21" fill="none" xmlns="http://www.w3.org/2000/svg">
<g id="Frame" clip-path="url(#clip0_130_602)">
<g id="Group">
<path id="Vector" d="M-0.000976562 15.2974C-0.000976562 14.2611 0.753026 12.9347 1.59916 13.5331C1.77799 13.6596 1.97245 13.8406 2.2106 14.0803C4.80681 16.7901 9.13382 17.0804 12.2108 14.9513C12.429 14.8049 12.6471 14.5479 12.9069 14.3057C13.0765 14.1475 13.432 13.9545 13.2685 13.79C13.1724 13.6932 13.0762 13.6932 12.98 13.6932C12.6916 13.6932 12.4993 13.6932 12.2108 13.5964C11.3454 13.4029 10.7685 12.7254 10.8646 11.9512C10.9608 11.0802 11.5377 10.4996 12.4031 10.4996C13.4608 10.4996 14.6147 10.4996 15.6724 10.4996C17.1147 10.4996 17.5955 10.0157 17.5955 8.56403C17.5955 7.98337 17.5955 7.49948 17.5955 6.91882C17.6755 6.27511 18.0878 5.6983 18.6666 5.52213C18.9065 5.44913 19.1648 5.4343 19.4132 5.46891C19.9967 5.55025 20.5936 5.97582 20.6725 6.53171C20.961 8.6608 21.0571 10.7899 19.3263 12.4351C18.4609 13.3061 17.3071 13.5964 16.1532 13.6932C15.6724 13.6932 15.4801 13.8868 15.2878 14.2739C14.7108 15.7255 13.9416 16.8868 12.8839 17.9514C9.1743 21.6849 3.11244 20.9677 0.375891 16.4553C0.316577 16.3575 0.260777 16.2846 0.185095 16.1988C0.0488465 16.0444 -0.000976562 15.8119 -0.000976562 15.606C-0.000976562 15.5031 -0.000976562 15.4003 -0.000976562 15.2974Z" fill="white"/>
<path id="Vector_2" d="M26.9213 15.145C26.3444 15.145 25.9598 15.145 25.479 14.9515C23.5559 14.4676 22.1135 12.8224 21.8251 11.0804C21.4404 8.75775 22.6905 6.82221 24.229 6.048C25.9598 5.08023 28.0752 5.27378 29.6137 6.53188C30.5752 7.40288 31.2483 8.46742 31.3445 9.72552C31.3445 10.3062 31.633 10.403 32.1137 10.403C32.4984 10.403 32.9791 10.403 33.3638 10.403C33.8445 10.403 33.9407 10.3062 34.0368 9.8223C34.3253 7.40288 35.96 5.75767 38.3639 5.46734C40.1908 5.17701 42.1139 6.24155 43.0755 7.88676C43.9409 9.43519 43.8447 11.6611 42.787 13.1127C41.0562 15.4354 38.0754 15.8225 35.7676 14.0805C35.4792 13.7902 35.0946 13.6934 34.7099 13.6934C33.8445 13.6934 32.9791 13.6934 32.0176 13.6934C32.7868 14.6611 33.6522 15.2418 34.7099 15.6289C37.5946 16.9838 41.1524 16.3064 43.2678 14.0805C44.1332 13.2095 44.5178 12.1449 44.614 10.8868C44.614 10.2094 44.614 9.62875 44.7101 8.95131C44.9024 8.37065 45.1909 7.78998 45.7678 7.40288C46.0563 7.20932 46.2486 7.20932 46.2486 7.59643C46.2486 9.62874 46.4409 11.6611 45.7678 13.6934C44.614 16.5967 42.8832 19.0161 39.71 20.0807C36.4407 21.1452 32.6907 19.6935 30.7675 16.7902C30.5752 16.4031 30.4791 16.1128 30.6714 15.7257C30.9599 15.2418 31.1522 14.7579 31.3445 14.274C31.4406 14.0805 31.6329 13.8869 31.3445 13.6934C31.056 13.5966 30.6714 13.5966 30.4791 13.8869C30.3829 13.9837 30.3829 14.1773 30.2868 14.3708C29.0367 17.2741 27.1136 19.4032 23.9405 20.1774C20.7674 20.9516 17.4019 19.5 15.6711 16.7902C15.3826 16.4031 15.3826 16.1128 15.5749 15.7257C15.8634 15.2418 16.0557 14.7579 16.248 14.274C16.5365 13.6934 16.825 13.5966 17.3057 14.0805C19.0366 15.8225 21.152 16.4999 23.5559 16.3064C24.8059 16.2096 25.8636 15.9192 26.9213 15.145ZM37.3061 10.2094C37.3061 11.1772 37.9792 11.8546 38.9408 11.8546C39.8062 11.8546 40.5754 11.1772 40.5754 10.2094C40.5754 9.24164 39.9023 8.46742 38.9408 8.46742C37.9792 8.5642 37.3061 9.33841 37.3061 10.2094ZM28.2675 10.3062C28.2675 9.33841 27.4983 8.5642 26.6329 8.66098C25.6713 8.5642 24.9982 9.33841 24.9982 10.3062C24.9982 11.274 25.6713 11.9514 26.6329 11.9514C27.4983 11.9514 28.2675 11.1772 28.2675 10.3062Z" fill="white"/>
<path id="Vector_3" d="M47.2119 6.82219C47.2119 5.27376 47.2119 3.72533 47.2119 2.1769C47.2119 1.40269 47.7889 0.822028 48.4619 0.628474C49.135 0.43492 49.9043 0.822028 50.1927 1.40269C50.3851 1.88657 50.4812 2.37046 50.4812 2.75757C50.4812 5.46732 50.4812 8.17707 50.4812 10.8868C50.4812 12.0481 51.1543 12.9191 52.3082 13.1127C52.4043 13.1127 52.5966 13.3062 52.7889 13.1127C52.8851 13.0159 52.6928 12.8224 52.6928 12.7256C51.6351 10.9836 51.2505 9.14484 51.6351 7.2093C51.7312 6.82219 51.7312 6.53186 51.9235 6.14476C52.1159 5.46732 52.6928 5.17699 53.3659 5.27376C53.9428 5.37054 54.3274 5.75765 54.4236 6.33831C54.5197 6.72542 54.5197 7.11252 54.6159 7.49963C54.7121 7.88674 54.8082 8.08029 55.1928 7.69319C56.4429 6.62864 57.8852 5.9512 59.5198 5.5641C64.7122 4.306 69.6162 8.17707 69.4239 13.403C69.4239 13.9837 69.3277 14.5643 69.1354 15.145C68.9431 15.9192 68.3662 16.4031 67.6931 16.4031C67.02 16.3063 66.5392 15.9192 66.443 15.0482C66.443 14.7579 66.3469 14.3708 66.2507 14.0805C66.1546 13.6934 65.9623 13.5966 65.6738 13.8869C64.1353 15.145 62.5007 15.9192 60.5775 16.2096C60.0968 16.3063 59.616 16.3063 59.1352 16.3063C57.0198 16.3063 55.0005 16.3063 52.8851 16.3063C49.712 16.3063 47.3081 13.8869 47.3081 10.6933C47.2119 9.53195 47.2119 8.17707 47.2119 6.82219ZM62.2122 9.33839C62.2122 9.04806 62.0199 9.04806 61.9237 8.95129C59.8083 7.98352 57.6929 8.08029 55.5775 9.24162C55.289 9.43517 55.289 9.62873 55.4813 9.91905C56.3467 11.1772 57.4044 12.2417 58.8467 12.9191C59.1352 13.0159 59.3275 13.0159 59.616 12.8224C60.7699 12.0481 61.6353 10.9836 62.2122 9.7255C62.116 9.62872 62.2122 9.43517 62.2122 9.33839ZM62.9814 13.4998C63.7507 13.3062 64.5199 13.1127 65.2892 12.6288C65.4815 12.4353 65.5776 12.3385 65.3853 12.0481C65.0007 11.4675 64.6161 10.8868 64.0392 10.4029C63.8468 10.2094 63.6545 10.2094 63.6545 10.4997C63.4622 11.4675 63.1737 12.4353 62.693 13.3062C62.5968 13.4998 62.693 13.4998 62.9814 13.4998Z" fill="white"/>
<path id="Vector_4" d="M15.5747 3.14428C15.5747 4.49915 14.5169 5.5637 13.2669 5.5637C11.9207 5.5637 10.7669 4.49915 10.863 3.0475C10.863 1.69262 11.9207 0.724854 13.2669 0.724854C14.6131 0.724854 15.5747 1.69262 15.5747 3.14428Z" fill="white"/>
</g>
</g>
<defs>
<clipPath id="clip0_130_602">
<rect width="69.3283" height="19.7425" fill="white" transform="translate(0 0.628662)"/>
</clipPath>
</defs>
</svg>
