<svg width="65" height="64" viewBox="0 0 65 64" fill="none" xmlns="http://www.w3.org/2000/svg">
<g id="vuesax/linear/medal-star">
<g id="medal-star">
<path id="Vector" d="M50.9168 24C50.9168 27.8667 49.7702 31.4134 47.7968 34.3734C44.9168 38.6401 40.3568 41.6534 35.0502 42.4267C34.1435 42.5867 33.2102 42.6667 32.2502 42.6667C31.2902 42.6667 30.3568 42.5867 29.4502 42.4267C24.1435 41.6534 19.5835 38.6401 16.7035 34.3734C14.7302 31.4134 13.5835 27.8667 13.5835 24C13.5835 13.68 21.9302 5.33337 32.2502 5.33337C42.5702 5.33337 50.9168 13.68 50.9168 24Z" stroke="#1CB561" stroke-width="4.5" stroke-linecap="round" stroke-linejoin="round"/>
<path id="Vector_2" d="M56.9166 49.2534L52.5166 50.2933C51.5299 50.5333 50.7566 51.2801 50.5432 52.2667L49.6099 56.1867C49.1032 58.3201 46.3832 58.9601 44.9699 57.2801L32.2499 42.6667L19.5299 57.3067C18.1166 58.9867 15.3966 58.3467 14.8899 56.2133L13.9566 52.2933C13.7166 51.3067 12.9432 50.5334 11.9832 50.32L7.58322 49.2801C5.55655 48.8001 4.83655 46.2667 6.30322 44.8L16.7032 34.4C19.5832 38.6667 24.1432 41.6801 29.4499 42.4534C30.3566 42.6134 31.2899 42.6934 32.2499 42.6934C33.2099 42.6934 34.1432 42.6134 35.0499 42.4534C40.3566 41.6801 44.9166 38.6667 47.7966 34.4L58.1966 44.8C59.6632 46.24 58.9432 48.7734 56.9166 49.2534Z" stroke="#1CB561" stroke-width="4.5" stroke-linecap="round" stroke-linejoin="round"/>
<path id="Vector_3" d="M33.7968 15.9466L35.3701 19.0933C35.5834 19.5199 36.1434 19.9466 36.6501 20.0266L39.5034 20.5066C41.3168 20.7999 41.7434 22.1333 40.4368 23.44L38.2234 25.6532C37.8501 26.0266 37.6368 26.7466 37.7701 27.28L38.4101 30.0266C38.9168 32.1866 37.7701 33.0399 35.8501 31.8932L33.1834 30.3199C32.7034 30.0266 31.9034 30.0266 31.4234 30.3199L28.7568 31.8932C26.8368 33.0132 25.6901 32.1866 26.1968 30.0266L26.8368 27.28C26.9434 26.7733 26.7568 26.0266 26.3834 25.6532L24.1701 23.44C22.8634 22.1333 23.2901 20.8266 25.1034 20.5066L27.9568 20.0266C28.4368 19.9466 28.9968 19.5199 29.2101 19.0933L30.7834 15.9466C31.5568 14.24 32.9434 14.24 33.7968 15.9466Z" stroke="#1CB561" stroke-width="4.5" stroke-linecap="round" stroke-linejoin="round"/>
</g>
</g>
</svg>
