<svg width="65" height="64" viewBox="0 0 65 64" fill="none" xmlns="http://www.w3.org/2000/svg">
<g id="gym 1" clip-path="url(#clip0_45_2881)">
<path id="Vector" d="M61.4289 18.232L55.6103 12.4107L58.1356 9.88534C58.3903 9.63935 58.5935 9.3451 58.7332 9.01976C58.873 8.69441 58.9465 8.34449 58.9496 7.99041C58.9527 7.63634 58.8852 7.28519 58.7511 6.95747C58.6171 6.62974 58.419 6.332 58.1687 6.08162C57.9183 5.83124 57.6205 5.63324 57.2928 5.49915C56.9651 5.36507 56.614 5.2976 56.2599 5.30068C55.9058 5.30375 55.5559 5.37732 55.2305 5.51707C54.9052 5.65683 54.6109 5.85998 54.3649 6.11468L51.8396 8.64001L46.0183 2.82134C44.1834 1.07287 41.7461 0.0975342 39.2116 0.0975342C36.6771 0.0975342 34.2398 1.07287 32.4049 2.82134C31.5104 3.71512 30.8008 4.77641 30.3167 5.94457C29.8325 7.11272 29.5833 8.36483 29.5833 9.62934C29.5833 10.8939 29.8325 12.146 30.3167 13.3141C30.8008 14.4823 31.5104 15.5436 32.4049 16.4373L38.2236 22.256L22.5063 37.9733L16.6849 32.1547C14.8501 30.4062 12.4128 29.4309 9.87828 29.4309C7.34376 29.4309 4.90644 30.4062 3.07161 32.1547C2.1771 33.0485 1.46749 34.1097 0.983343 35.2779C0.499195 36.446 0.25 37.6982 0.25 38.9627C0.25 40.2272 0.499195 41.4793 0.983343 42.6475C1.46749 43.8156 2.1771 44.8769 3.07161 45.7707L8.89028 51.5893L6.36494 54.1147C6.11025 54.3607 5.9071 54.6549 5.76734 54.9803C5.62758 55.3056 5.55402 55.6555 5.55094 56.0096C5.54787 56.3637 5.61534 56.7148 5.74942 57.0425C5.8835 57.3703 6.08151 57.668 6.33189 57.9184C6.58227 58.1688 6.88001 58.3668 7.20773 58.5009C7.53546 58.6349 7.8866 58.7024 8.24068 58.6993C8.59476 58.6963 8.94468 58.6227 9.27002 58.4829C9.59537 58.3432 9.88962 58.14 10.1356 57.8853L12.6609 55.36L18.4823 61.1787C19.376 62.0728 20.4371 62.7821 21.605 63.266C22.7729 63.7499 24.0248 63.999 25.2889 63.999C26.5531 63.999 27.8049 63.7499 28.9729 63.266C30.1408 62.7821 31.2019 62.0728 32.0956 61.1787C32.99 60.2851 33.6996 59.2241 34.1837 58.0561C34.6678 56.8882 34.917 55.6363 34.917 54.372C34.917 53.1077 34.6678 51.8558 34.1837 50.6879C33.6996 49.52 32.99 48.4589 32.0956 47.5653L26.2769 41.7467L42.0103 26.0267L47.8289 31.8453C48.7227 32.7395 49.7838 33.4487 50.9517 33.9326C52.1196 34.4165 53.3714 34.6656 54.6356 34.6656C55.8998 34.6656 57.1516 34.4165 58.3195 33.9326C59.4874 33.4487 60.5486 32.7395 61.4423 31.8453C62.3367 30.9518 63.0463 29.8907 63.5304 28.7228C64.0145 27.5549 64.2637 26.303 64.2637 25.0387C64.2637 23.7744 64.0145 22.5225 63.5304 21.3546C63.0463 20.1866 62.3367 19.1256 61.4423 18.232H61.4289ZM29.5836 54.3733C29.5848 54.9372 29.4741 55.4958 29.2581 56.0167C29.042 56.5376 28.7249 57.0105 28.3249 57.408C27.5076 58.1899 26.4201 58.6263 25.2889 58.6263C24.1578 58.6263 23.0703 58.1899 22.2529 57.408L6.84228 41.9973C6.03708 41.1921 5.58472 40.1001 5.58472 38.9613C5.58472 37.8226 6.03708 36.7305 6.84228 35.9253C7.64747 35.1201 8.73956 34.6678 9.87828 34.6678C11.017 34.6678 12.1091 35.1201 12.9143 35.9253L28.3249 51.336C28.7252 51.7339 29.0425 52.2072 29.2586 52.7286C29.4746 53.2499 29.5851 53.809 29.5836 54.3733ZM57.6583 28.0747C56.8409 28.8566 55.7534 29.293 54.6223 29.293C53.4911 29.293 52.4036 28.8566 51.5863 28.0747L36.1756 12.664C35.7769 12.2653 35.4607 11.792 35.2449 11.2711C35.0291 10.7502 34.9181 10.1918 34.9181 9.62801C34.9181 8.48929 35.3704 7.39721 36.1756 6.59201C36.9808 5.78681 38.0729 5.33446 39.2116 5.33446C40.3503 5.33446 41.4424 5.78681 42.2476 6.59201L57.6583 22.0027C58.0573 22.4012 58.3739 22.8744 58.5899 23.3954C58.8059 23.9163 58.917 24.4747 58.917 25.0387C58.917 25.6026 58.8059 26.161 58.5899 26.682C58.3739 27.2029 58.0573 27.6762 57.6583 28.0747Z" fill="#1CB561"/>
</g>
<defs>
<clipPath id="clip0_45_2881">
<rect width="64" height="64" fill="white" transform="translate(0.25)"/>
</clipPath>
</defs>
</svg>
